<?xml version="1.0" encoding="UTF-8" standalone="no"?>
<!-- Created with Inkscape (http://www.inkscape.org/) -->

<svg
   width="10mm"
   height="10mm"
   viewBox="0 0 10 10"
   version="1.1"
   id="svg5"
   xmlns="http://www.w3.org/2000/svg"
   xmlns:svg="http://www.w3.org/2000/svg">
  <defs
     id="defs2" />
  <g
     id="layer1">
    <path
       id="path4360"
       style="fill:#000000;fill-opacity:1;stroke:#000000;stroke-width:0.999999px;stroke-linecap:butt;stroke-linejoin:miter;stroke-opacity:1"
       d="m 25.220703,5.8007812 c -0.03055,0.00131 -0.06103,0.00732 -0.0918,0.017578 -0.121587,0.040523 -0.114187,0.4153094 -0.08398,0.5058594 0.17101,0.5130303 1.04151,1.8779191 0.841797,2.2773437 -0.04858,0.097157 -0.223002,0.2490991 -0.251953,0.3359375 -0.09064,0.2719363 0.177602,0.6155648 -0.169922,0.84375 -0.130393,0.347716 -0.433277,0.614597 -0.589844,0.927734 -0.09834,0.196679 -0.114397,0.501888 -0.251953,0.673828 -0.349338,0.436672 -0.228734,0.42806 -0.505859,0.84375 -0.433936,0.650904 -1.021167,1.411244 -1.6875,1.855469 -0.03307,0.02205 -0.05586,0.05585 -0.08398,0.08399 0,0.0281 0.02249,0.06713 0,0.08398 -0.513532,0.385149 -0.745745,0.07893 -1.095703,0.253906 -0.202689,0.101345 -0.119319,0.618834 -0.589844,0.337891 -0.10769,0.03232 -0.226326,-0.01395 -0.33789,0 -0.306164,0.03827 -0.40087,0.114495 -0.675782,0.251953 -0.390059,0.05201 -0.797925,-0.09544 -1.179687,0 -0.03856,0.0096 -0.04626,0.0714 -0.08398,0.08398 -0.109357,0.03645 -0.732004,0.07 -0.84375,0.08399 -0.184544,0.02306 -0.491511,-0.06077 -0.673828,0 -0.544363,0.181454 -0.998099,0.533905 -1.517578,0.759765 -0.440477,0.191512 -0.903654,0.327478 -1.349609,0.50586 -0.377598,0.151039 -1.114581,0.354812 -1.433594,0.673828 -0.557539,0.557544 0.316785,-0.196468 -0.08398,0.33789 -0.06081,0.08107 -0.182247,0.09826 -0.253907,0.169922 -0.317545,0.317549 -0.429591,0.813334 -0.673828,1.179688 -0.129146,0.193704 -0.0491,-0.03684 -0.253906,0.167969 -0.08192,0.08195 -0.01971,0.241459 -0.08398,0.33789 -0.06615,0.09922 -0.180403,0.158507 -0.251953,0.253907 -0.212026,0.282697 -0.370359,0.847527 -0.591797,1.179687 -0.09983,0.14975 -0.255449,0.260897 -0.335938,0.421875 -0.6752781,1.350562 -1.2732847,2.767043 -1.6874998,4.216797 -0.061704,0.21597 -0.1349734,0.526887 -0.1679687,0.757812 -0.01988,0.139127 0.044443,0.288549 0,0.421875 -0.1022551,0.306759 -0.246804,0.570494 -0.3378906,0.84375 -0.079903,0.239695 -0.033562,0.700827 -0.083984,0.927735 -0.019283,0.08677 -0.055865,0.167632 -0.083984,0.251953 -0.028108,0.0281 -0.074348,0.04543 -0.083984,0.08398 -0.020447,0.0818 0.020447,0.172104 0,0.253906 -0.00964,0.03856 -0.07116,0.04706 -0.085938,0.08398 -0.086082,0.215206 -0.094672,0.453939 -0.1679687,0.673828 -0.071664,0.214983 -0.2365464,0.389108 -0.3378906,0.591797 -0.1192517,0.238504 -0.1529225,0.510231 -0.2519531,0.757812 -0.182679,0.456697 -0.4241148,0.933421 -0.6738282,1.34961 -0.1684981,0.280831 -0.5473108,0.461373 -0.7597656,0.673828 -0.07166,0.07166 -0.096305,0.182246 -0.1679688,0.253906 -0.2553957,0.255397 -0.5694534,0.445248 -0.84375,0.673828 -0.7542954,0.628581 -1.4492742,1.411402 -2.4453124,1.603516 0.1967551,0.14054 0.3775741,0.304136 0.5898437,0.419922 0.3822041,0.208471 1.5704201,0.119496 1.9394531,0.08594 0.062593,-0.0057 0.1055007,-0.07902 0.1679688,-0.08594 0.7207487,-0.08008 1.470883,0.06021 2.1933594,0 0.039613,-0.0033 0.048419,-0.06623 0.083984,-0.08398 0.1353846,-0.06769 0.2945503,-0.08612 0.421875,-0.167968 0.9073746,-0.583313 1.4319599,-1.262995 1.6855469,-2.277344 0.091946,-0.367784 0.1922649,-0.350615 0.2539062,-0.84375 0.1002524,-0.80202 -0.4371954,-1.389256 0.5058594,-1.179688 1.1513904,0.255864 2.2567124,0.709876 3.4570314,0.589844 0.08893,-0.0089 1.668184,-0.431953 2.023437,-0.589844 0.417631,-0.185614 0.724426,-0.513643 1.181641,-0.589843 0.216543,-0.03609 0.342684,0.275017 0.505859,0.421875 1.493955,1.344558 -0.183054,-0.07977 0.841797,0.505859 0.138053,0.07889 0.195675,0.264828 0.337891,0.335938 0.744219,0.372104 1.40164,0.739306 2.109375,1.18164 0.300152,0.187595 0.153677,-0.02558 0.589844,0.337891 0.259018,0.215849 0.422094,0.674046 0.673828,0.925781 0.225751,0.22575 1.302425,0.384688 1.126953,0.935547 0.100898,-0.0605 0.20797,-0.111642 0.30664,-0.175781 0.424861,-0.276159 1.578337,-1.161171 1.160157,-0.875 -0.4987,0.341272 0.358414,-0.371281 0.998047,-0.501954 -0.06106,-0.193022 0.484433,-0.498619 0.455078,-0.646484 -0.01822,-0.109307 -0.471579,-0.832336 -0.50586,-0.84375 -0.0819,-0.02729 -0.307692,0 -0.419922,0 -0.483577,0 -2.709574,-0.09633 -3.037109,-0.167969 -0.0614,-0.01343 -0.184079,-0.03955 -0.228515,-0.08398 -0.09801,-0.09801 -0.241578,-0.164097 -0.361329,-0.253906 -0.05027,-0.03771 -0.04744,-0.116828 -0.08398,-0.167969 -0.10461,-0.146454 -0.432224,-0.476578 -0.306641,-0.347656 0.184411,0.189313 -0.151566,-0.08182 -0.380859,-0.31836 -0.150347,-0.128562 -0.192904,-0.151994 -0.324219,-0.261718 -0.170112,-0.142141 -0.21482,-0.164046 -0.40625,-0.259766 -0.07542,-0.03772 -0.18421,-0.111309 -0.261718,-0.144531 -0.163752,-0.07018 -0.331139,-0.156519 -0.513672,-0.271485 -0.01236,-0.0078 -0.540603,0.0367 -0.419922,-0.08398 1.221788,-1.221784 1.88596,-0.567641 2.865234,-1.179688 0.417747,-0.261087 1.358767,-1.531544 1.603516,-1.939453 0.07788,-0.129794 0.171014,-0.254903 0.257812,-0.378906 0.113978,-0.162824 0.204794,-0.312158 0.332032,-0.464844 0.154786,-0.185751 0.276802,-0.396407 0.421874,-0.589843 0.06081,-0.08107 0.208985,-0.203125 0.208985,-0.203125 0,0 0.03906,0.01953 0.07031,-0.115235 0.119804,-0.106247 0.09743,-0.171428 0.333985,-0.441406 0.206071,-0.515189 0.133598,-0.526215 0.222656,-1.060547 0.04912,-0.294719 0.251117,-0.970155 0.353516,-1.277344 0.148992,-0.447007 -0.0018,-0.1086 0.417968,-0.90625 0.188804,-0.358727 0.123466,-0.539108 0.332032,-0.886718 0.03569,-0.05948 0.05493,-0.384193 0.167968,-0.421875 0.411231,-0.137073 0.937422,0.01906 1.34961,-0.08398 0.07713,-0.01928 0.09686,-0.134356 0.167968,-0.169922 0.08,-0.04 0.512057,-0.03545 0.591797,0 0.689975,0.306656 1.184465,0.675977 1.939453,0.84375 0.401181,0.08915 0.865329,-0.09959 1.263672,0 0.03856,0.0096 0.05588,0.05588 0.08398,0.08398 0.14054,0.0281 0.281337,0.05586 0.421875,0.08398 0.139454,0.01742 0.284066,-0.02755 0.421875,0 0.649485,0.129897 1.244982,0.515567 1.855469,0.759766 0.150355,0.06013 0.156023,-0.03726 0.33789,0.08398 0.03606,0.02404 0.332538,0.248804 0.335938,0.253906 0.09956,0.149339 0,0.854898 0,1.095704 0,0.140534 -0.125704,0.35903 0,0.421874 0.436608,0.218304 0.678834,-0.310904 0.759765,-0.33789 0.05333,-0.01776 0.12119,0.03118 0.167969,0 0.201143,-0.134092 0.03865,-0.305931 0,-0.421875 -0.08572,-0.257156 0.0095,-0.561364 -0.08398,-0.841797 -0.04467,-0.134027 -0.191087,-0.296244 -0.253907,-0.421875 -0.05353,-0.107065 0.03734,-0.309804 0,-0.421875 -0.08774,-0.263199 -0.05553,0.02845 -0.167968,-0.08398 -0.283132,-0.283133 -0.374683,-0.774915 -0.589844,-1.097657 -0.01559,-0.0234 -0.06059,0.01557 -0.08398,0 -0.524556,-0.3497 -0.452588,-0.140128 -1.011718,-0.251953 -0.923265,-0.184652 -1.698506,-0.139315 -2.615235,-0.253906 -0.289702,-0.03621 -0.831725,0.131989 -1.095703,0 -0.61267,-0.306342 0.04871,-0.02221 -0.421875,-0.335938 -0.03836,-0.02557 -0.456827,-0.145392 -0.505859,-0.169921 -0.2572,-0.128599 -0.337016,-0.505564 -0.589844,-0.589844 -0.04769,-0.01591 -0.220042,0.03386 -0.253906,0 -0.16436,-0.164363 -0.0066,-0.267073 -0.08398,-0.421875 -0.192949,-0.385916 0.03563,0.35884 -0.167969,-0.251953 -0.07589,-0.227675 0.07589,-0.532091 0,-0.759766 -0.100993,-0.302976 -0.454708,-0.928995 -0.253907,-1.263672 0.07231,-0.120514 0.191057,-0.212187 0.253907,-0.33789 0.09467,-0.18934 0.05927,-0.596725 0.167969,-0.759766 0.05263,-0.07895 0.08908,-0.126055 0.121093,-0.169922 -0.03877,0.208146 0.239073,-0.329148 0,-0.002 0.0064,-0.03379 0.0223,-0.08448 0.04883,-0.164062 0.08933,-0.268004 0.693431,-0.572514 0.925782,-0.675782 0.186991,-0.08311 0.447101,-0.02327 0.591797,-0.167968 0.04444,-0.04444 0.03169,-0.135075 0.08398,-0.169922 0.126005,-0.084 1.417204,0 1.685547,0 0.22018,0 0.9518,0.11492 1.18164,0 0.220692,-0.110345 1.206652,-0.387494 1.433594,-0.419922 0.378544,-0.05408 0.333217,-0.05638 0.673828,-0.169922 0.08,-0.02665 0.173905,0.02668 0.253907,0 0.05146,-0.01715 0.200494,-0.15081 0.251953,-0.167969 0.08989,-0.02997 0.262269,0.05041 0.33789,0 0.200863,-0.133908 0.02003,-0.449461 0,-0.589844 -0.01988,-0.139125 0.06285,-0.296171 0,-0.421875 -0.06939,-0.138771 -0.304517,-0.382757 -0.421875,-0.421875 -0.08,-0.02664 -0.183747,0.04678 -0.253906,0 -0.143756,-0.09584 -0.413317,-0.302589 -0.589844,-0.33789 -0.400234,-0.08005 -1.073061,-0.120178 -1.433594,0 -0.08734,0.02911 -0.168293,0.12809 -0.251953,0.169922 -0.05721,0.0286 -0.948221,0.146918 -1.025294,0.135818 0.154555,-0.06327 0.855348,-0.0084 1.025294,-0.135818 0.360275,-0.270206 -0.473832,-0.337806 -0.0688,-0.580826 0.15789,-0.09474 1.43298,-0.7505054 1.586376,-0.8527681 0.132539,-0.088362 0.411068,-0.1117204 0.505859,-0.2539063 0.03118,-0.046772 -0.01776,-0.1146358 0,-0.1679687 0.03378,-0.1013443 0.256279,-0.2266937 0.337891,-0.2539063 0.02666,-0.00888 0.08398,0.02812 0.08398,0 0,-0.1013442 -0.145355,-0.1536325 -0.169922,-0.2519531 -0.03082,-0.1232901 -0.02727,-0.3084589 -0.08398,-0.421875 -0.06406,-0.1281222 -0.207253,-0.2037968 -0.251954,-0.3378906 -0.02668,-0.079998 0.03772,-0.1765332 0,-0.2519531 -0.03555,-0.071108 -0.134356,-0.098814 -0.169921,-0.1699219 -0.06691,-0.1338225 -0.05573,-0.3936225 -0.167969,-0.5058594 -0.251108,-0.2511114 -0.110439,0.1271342 -0.337891,-0.2519531 -0.04573,-0.076218 -0.01288,-0.2005734 -0.08398,-0.2539063 -0.157404,-0.1180535 -0.394609,0.024416 -0.589844,0 -0.260792,-0.032598 -2.285154,-0.2060558 -2.529297,-0.083984 -0.07111,0.035554 -0.103772,0.1238692 -0.169922,0.1679687 -0.381637,0.2544227 -1.096429,-0.040654 -1.517578,0.1699219 -0.07111,0.035554 -0.0998,0.1270667 -0.167968,0.1679687 -0.07622,0.045732 -0.169585,0.055865 -0.253907,0.083984 -0.0281,0 -0.05885,-0.012586 -0.08398,0 -0.337293,0.1686463 0.338314,9.349e-4 -0.251953,0.2539063 C 27.289542,7.4707946 26.94391,6.7805168 26.478516,6.4082031 26.282201,6.2511524 26.022503,6.1943595 25.802734,6.0722656 25.64004,5.9818796 25.434545,5.7915857 25.220703,5.8007812 Z M 22.544922,35.591797 c -0.03961,0.02375 -0.07827,0.0504 -0.115234,0.07813 -0.02249,0.01686 0.07141,0.02513 0.08398,0 0.01336,-0.02671 0.02327,-0.05307 0.03125,-0.07813 z m 9.263672,-24.566406 c 0.02087,-0.0012 -1.036712,0.188628 -1.003962,0.196308 -0.05891,0.03179 0.986384,-0.126964 0.986384,-0.174824 0,-0.01406 0.0057,-0.02081 0.01758,-0.02148 z m -6.212891,22.714843 c -0.02061,-0.01743 -0.121923,0.280113 -0.146484,0.28125 0.04849,-0.0472 0.1176,-0.191013 0.15039,-0.251953 8.33e-4,-0.01709 -9.62e-4,-0.02681 -0.0039,-0.0293 z"
       transform="scale(0.26458333)" />
    <ellipse
       style="fill:#ffffff;fill-opacity:1;stroke-width:0.264583"
       id="path10478"
       cx="8.0119143"
       cy="2.0959961"
       rx="0.22324218"
       ry="0.16123046" />
  </g>
</svg>
